<svg xmlns="http://www.w3.org/2000/svg" width="16" height="14" viewBox="0 0 16 14">
  <metadata><?xpacket begin="﻿" id="W5M0MpCehiHzreSzNTczkc9d"?>
<x:xmpmeta xmlns:x="adobe:ns:meta/" x:xmptk="Adobe XMP Core 5.6-c138 79.159824, 2016/09/14-01:09:01        ">
   <rdf:RDF xmlns:rdf="http://www.w3.org/1999/02/22-rdf-syntax-ns#">
      <rdf:Description rdf:about=""/>
   </rdf:RDF>
</x:xmpmeta>
                                                                                                    
                                                                                                    
                                                                                                    
                                                                                                    
                                                                                                    
                                                                                                    
                                                                                                    
                                                                                                    
                                                                                                    
                                                                                                    
                                                                                                    
                                                                                                    
                                                                                                    
                                                                                                    
                                                                                                    
                                                                                                    
                                                                                                    
                                                                                                    
                                                                                                    
                                                                                                    
                           
<?xpacket end="w"?></metadata>
<defs>
    <style>
      .cls-1 {
        fill: #999;
        fill-rule: evenodd;
      }
    </style>
  </defs>
  <path id="Options" class="cls-1" d="M828,6104.59v2.5a1,1,0,0,1-1,1H817a1,1,0,0,1-1-1v-5a1.007,1.007,0,0,1,.539-0.88,8.1,8.1,0,0,1,1.221-2.12H817a3,3,0,0,0-3,3v5a3,3,0,0,0,3,2.99h10a3,3,0,0,0,3-2.99v-4Zm1.6-3.7-4,3a0.984,0.984,0,0,1-1.047.09,0.993,0.993,0,0,1-.553-0.89v-1a6,6,0,0,0-5.651,4,5.986,5.986,0,0,1,5.651-8v-1a0.993,0.993,0,0,1,.553-0.89,0.984,0.984,0,0,1,1.047.09l4,3a0.994,0.994,0,0,1,.4.8A1.008,1.008,0,0,1,829.6,6100.89Z" transform="translate(-814 -6096.09)"/>
</svg>
